# xmcd CD database file
#
# Track frame offsets:
#	150
#	27143
#	42881
#	60309
#	76667
#	98024
#	113796
#	137817
#	165538
#
# Disc length: 2547 seconds
#
# Revision: 2
# Processed by: cddbd v1.4b41PL1 Copyright (c) Steve Scherf et al.
# Submitted via: Feurio! 1.52 - http://www.feurio.com
#
DISCID=6009f109
DTITLE=Fiorella Mannoia - Fragile
DYEAR=1900
DGENRE=
TTITLE0=Fragile
TTITLE1=Occhi neri
TTITLE2=Fotogramma (Quelli siamo noi)
TTITLE3=Come mi vuoi?
TTITLE4=Lìassenza
TTITLE5=L'uccisione di Babbo Natale
TTITLE6=Il Pescatore
TTITLE7=Lìaltra metà (Notte di guerra in europa)
TTITLE8=L'uomo di polvere
EXTD=
EXTT0=
EXTT1=
EXTT2=
EXTT3=
EXTT4=
EXTT5=
EXTT6=
EXTT7=
EXTT8=
PLAYORDER=
